PathFileType	4	(X/Y/Z)	 2.6Hz3min.trc
DataRate	CameraRate	NumFrames	NumMarkers	Units	OrigDataRate	OrigDataStartFrame	OrigNumFrames
200	200	10	35	m	200	251	1000
Frame#	Time	C7			LSH			RSH			MAN			RASI			LASI			HIPR			HIPL			RPSI			LPSI			COX			RTHI1			RTHI2			RTHI3			RTHI4			RSHA1			RSHA2			RSHA3			RSHA4			RHEEL			RMET5			RMET1			RTOE			LTHI1			LTHI2			LTHI3			LTHI4			LSHA1			LSHA2			LSHA3			LSHA4			LHEEL			LMET5			LMET1			LTOE			
		X1	Y1	Z1	X2	Y2	Z2	X3	Y3	Z3	X4	Y4	Z4	X5	Y5	Z5	X6	Y6	Z6	X7	Y7	Z7	X8	Y8	Z8	X9	Y9	Z9	X10	Y10	Z10	X11	Y11	Z11	X12	Y12	Z12	X13	Y13	Z13	X14	Y14	Z14	X15	Y15	Z15	X16	Y16	Z16	X17	Y17	Z17	X18	Y18	Z18	X19	Y19	Z19	X20	Y20	Z20	X21	Y21	Z21	X22	Y22	Z22	X23	Y23	Z23	X24	Y24	Z24	X25	Y25	Z25	X26	Y26	Z26	X27	Y27	Z27	X28	Y28	Z28	X29	Y29	Z29	X30	Y30	Z30	X31	Y31	Z31	X32	Y32	Z32	X33	Y33	Z33	X34	Y34	Z34	X35	Y35	Z35	
251	1.2550	-0.274362	1.414475	-0.514612	-0.227797	1.387030	-0.682074	-0.218154	1.379383	-0.342162	-0.163928	1.360299	-0.517503	-0.137927	0.953470	-0.430498	-0.126363	0.971798	-0.613841	-0.195252	1.014439	-0.385574	-0.172220	1.028387	-0.650024	-0.280706	1.005620	-0.463691	-0.274869	1.013198	-0.575380	-0.282344	1.017071	-0.520755	-0.258434	0.750960	-0.377114	-0.242770	0.693646	-0.367955	-0.183357	0.709044	-0.347159	-0.190716	0.769821	-0.353249	-0.292598	0.334083	-0.345866	-0.307363	0.295846	-0.349257	-0.255918	0.274690	-0.336045	-0.236448	0.312857	-0.336223	-0.366442	0.133398	-0.384283	-0.235869	0.040427	-0.326548	-0.205746	0.040816	-0.396457	-0.185760	0.032920	-0.384980	-0.215285	0.778094	-0.714376	-0.206088	0.717658	-0.721376	-0.142434	0.719485	-0.707710	-0.144224	0.778662	-0.699631	-0.304075	0.327293	-0.748991	-0.310497	0.283116	-0.748806	-0.257175	0.273600	-0.748176	-0.243374	0.311775	-0.748658	-0.366111	0.149727	-0.706517	-0.240622	0.042006	-0.759744	-0.208916	0.052861	-0.696959	-0.186606	0.038794	-0.705623	
252	1.2600	-0.273764	1.411482	-0.514503	-0.226999	1.383738	-0.682163	-0.217418	1.375968	-0.341919	-0.163518	1.357119	-0.517393	-0.138557	0.950417	-0.430512	-0.126892	0.968776	-0.613881	-0.196081	1.011132	-0.385628	-0.172751	1.025334	-0.650038	-0.281430	1.002302	-0.463929	-0.275470	1.009963	-0.575618	-0.282951	1.013780	-0.520973	-0.257544	0.747738	-0.376635	-0.241677	0.690475	-0.367531	-0.182046	0.706054	-0.347533	-0.189673	0.766819	-0.353539	-0.291940	0.331628	-0.345987	-0.307027	0.293437	-0.349483	-0.255661	0.271939	-0.336524	-0.235880	0.309959	-0.336754	-0.367609	0.131458	-0.384769	-0.237296	0.038106	-0.327146	-0.207047	0.038910	-0.397962	-0.186899	0.031385	-0.386690	-0.214984	0.774802	-0.714313	-0.205535	0.714389	-0.721292	-0.141883	0.716497	-0.707640	-0.143923	0.775670	-0.699582	-0.303421	0.324489	-0.748667	-0.310072	0.280364	-0.748430	-0.256799	0.270559	-0.747541	-0.242805	0.308678	-0.748088	-0.366640	0.147338	-0.705687	-0.241573	0.039244	-0.759145	-0.209889	0.049895	-0.695803	-0.187529	0.036035	-0.704327	
253	1.2650	-0.273186	1.408228	-0.514404	-0.226187	1.380206	-0.682225	-0.216681	1.372316	-0.341681	-0.163108	1.353680	-0.517281	-0.139162	0.947139	-0.430541	-0.127415	0.965496	-0.613939	-0.195473	1.007589	-0.387399	-0.173270	1.022026	-0.650061	-0.282150	0.998794	-0.464162	-0.276114	1.006603	-0.575806	-0.283582	1.010300	-0.521195	-0.256623	0.744268	-0.376191	-0.240566	0.687061	-0.367128	-0.180725	0.702818	-0.347925	-0.188636	0.763572	-0.353845	-0.291276	0.328981	-0.346141	-0.306699	0.290877	-0.349695	-0.255455	0.268992	-0.337020	-0.235326	0.306844	-0.337293	-0.368939	0.129264	-0.385419	-0.238593	0.036184	-0.327334	-0.208083	0.037336	-0.399215	-0.187719	0.030247	-0.388152	-0.214695	0.771240	-0.714245	-0.204994	0.710855	-0.721197	-0.141343	0.713246	-0.707578	-0.143633	0.772416	-0.699542	-0.302734	0.321461	-0.748380	-0.309643	0.277414	-0.748110	-0.256424	0.267277	-0.746889	-0.242213	0.305329	-0.747503	-0.367425	0.144688	-0.704791	-0.242469	0.036637	-0.758794	-0.210819	0.047131	-0.694524	-0.188276	0.033592	-0.702908	
254	1.2700	-0.272638	1.404712	-0.514320	-0.225368	1.376448	-0.682257	-0.215944	1.368437	-0.341455	-0.162713	1.349992	-0.517160	-0.139731	0.943651	-0.430582	-0.127932	0.961969	-0.614018	-0.196022	1.003910	-0.387955	-0.173767	1.018482	-0.650101	-0.282864	0.995101	-0.464383	-0.276775	1.003018	-0.575998	-0.284215	1.006651	-0.521406	-0.255731	0.740548	-0.375742	-0.239458	0.683393	-0.366758	-0.179427	0.699353	-0.348337	-0.187632	0.760080	-0.354161	-0.290618	0.326170	-0.346352	-0.306399	0.288194	-0.349951	-0.255321	0.265878	-0.337546	-0.234804	0.303520	-0.337872	-0.370452	0.126844	-0.386182	-0.239654	0.034771	-0.327101	-0.208771	0.036173	-0.400034	-0.188170	0.029436	-0.389195	-0.214418	0.767415	-0.714178	-0.204469	0.707057	-0.721092	-0.140813	0.709740	-0.707515	-0.143362	0.768907	-0.699507	-0.302045	0.318227	-0.748147	-0.309247	0.274253	-0.747807	-0.256106	0.263756	-0.746211	-0.241637	0.301724	-0.746903	-0.368577	0.141762	-0.703831	-0.243240	0.034355	-0.758711	-0.211617	0.044799	-0.693279	-0.188730	0.031698	-0.701459	
255	1.2750	-0.272122	1.400938	-0.514258	-0.224551	1.372492	-0.682257	-0.215211	1.364346	-0.341244	-0.162297	1.346063	-0.517046	-0.140273	0.939960	-0.430632	-0.128449	0.958205	-0.614118	-0.191884	1.001155	-0.388525	-0.174252	1.014706	-0.650159	-0.283582	0.991230	-0.464585	-0.277427	0.999229	-0.576207	-0.284805	1.002796	-0.521582	-0.254892	0.736564	-0.375313	-0.238363	0.679469	-0.366430	-0.178169	0.695670	-0.348768	-0.186691	0.756349	-0.354488	-0.289979	0.323227	-0.346634	-0.306136	0.285414	-0.350274	-0.255270	0.262608	-0.338124	-0.234331	0.300018	-0.338486	-0.372114	0.124278	-0.386961	-0.240433	0.033792	-0.326640	-0.209140	0.035398	-0.400371	-0.188327	0.028920	-0.389753	-0.214159	0.763332	-0.714118	-0.203959	0.703003	-0.720980	-0.140303	0.705983	-0.707440	-0.143115	0.765139	-0.699472	-0.301404	0.314810	-0.747966	-0.308958	0.270926	-0.747504	-0.255918	0.260009	-0.745481	-0.241136	0.297872	-0.746280	-0.370180	0.138589	-0.702819	-0.243884	0.032536	-0.758939	-0.212236	0.043097	-0.692252	-0.188862	0.030461	-0.700177	
256	1.2800	-0.271632	1.396918	-0.514221	-0.223752	1.368352	-0.682225	-0.214494	1.360062	-0.341049	-0.161852	1.341902	-0.516940	-0.140786	0.936077	-0.430685	-0.128968	0.954226	-0.614245	-0.197355	0.995786	-0.388151	-0.174730	1.010714	-0.650244	-0.284296	0.987172	-0.464782	-0.278035	0.995174	-0.576474	-0.285445	0.998751	-0.521806	-0.254131	0.732312	-0.374912	-0.237296	0.675293	-0.366159	-0.176967	0.691775	-0.349211	-0.185843	0.752390	-0.354821	-0.289375	0.320186	-0.347023	-0.305923	0.282565	-0.350669	-0.255314	0.259234	-0.338756	-0.233928	0.296393	-0.339146	-0.373860	0.121666	-0.387715	-0.241020	0.033114	-0.326102	-0.209341	0.034909	-0.400429	-0.188355	0.028615	-0.389965	-0.213926	0.758992	-0.714073	-0.203467	0.698695	-0.720858	-0.139822	0.701978	-0.707339	-0.142898	0.761125	-0.699438	-0.300860	0.311260	-0.747823	-0.308843	0.267499	-0.747188	-0.255937	0.256068	-0.744676	-0.240770	0.293789	-0.745612	-0.372278	0.135224	-0.701808	-0.244387	0.031246	-0.759471	-0.212673	0.042034	-0.691606	-0.188759	0.029726	-0.699212	
257	1.2850	-0.271169	1.392671	-0.514208	-0.223036	1.364059	-0.682185	-0.213799	1.355604	-0.340870	-0.161366	1.337527	-0.516843	-0.141267	0.932025	-0.430747	-0.129485	0.950052	-0.614401	-0.193045	0.992608	-0.388735	-0.175216	1.006518	-0.650362	-0.285013	0.982934	-0.464969	-0.278610	0.990835	-0.576804	-0.286082	0.994525	-0.522038	-0.253464	0.727801	-0.374570	-0.236249	0.670872	-0.365989	-0.175842	0.687680	-0.349660	-0.185121	0.748231	-0.355141	-0.288812	0.317098	-0.347527	-0.305762	0.279668	-0.351176	-0.255444	0.255800	-0.339426	-0.233592	0.292701	-0.339839	-0.375654	0.119088	-0.388327	-0.241532	0.032625	-0.325563	-0.209516	0.034567	-0.400449	-0.188389	0.028414	-0.390030	-0.213725	0.754400	-0.714042	-0.202997	0.694141	-0.720728	-0.139366	0.697734	-0.707214	-0.142716	0.756877	-0.699404	-0.300450	0.307644	-0.747676	-0.308960	0.264021	-0.746802	-0.256232	0.251974	-0.743764	-0.240593	0.289510	-0.744874	-0.374778	0.131727	-0.700857	-0.244835	0.030402	-0.760120	-0.213032	0.041422	-0.691445	-0.188598	0.029365	-0.698677	
258	1.2900	-0.270729	1.388226	-0.514212	-0.222393	1.359636	-0.682134	-0.213129	1.350998	-0.340709	-0.160838	1.332958	-0.516755	-0.141731	0.927814	-0.430809	-0.130002	0.945705	-0.614596	-0.198572	0.986918	-0.388353	-0.175712	1.002149	-0.650527	-0.285732	0.978509	-0.465148	-0.279094	0.986131	-0.577253	-0.286712	0.990141	-0.522259	-0.252897	0.723042	-0.374314	-0.235233	0.666232	-0.365926	-0.174811	0.683417	-0.350096	-0.184545	0.743889	-0.355435	-0.288300	0.313990	-0.348154	-0.305647	0.276760	-0.351769	-0.255642	0.252361	-0.340105	-0.233315	0.288989	-0.340543	-0.377452	0.116541	-0.388730	-0.241998	0.032226	-0.325122	-0.209701	0.034275	-0.400518	-0.188471	0.028241	-0.390051	-0.213558	0.749573	-0.714017	-0.202550	0.689351	-0.720588	-0.138936	0.693278	-0.707071	-0.142574	0.752413	-0.699372	-0.300194	0.304031	-0.747470	-0.309333	0.260545	-0.746292	-0.256825	0.247782	-0.742729	-0.240632	0.285085	-0.744040	-0.377537	0.128235	-0.699974	-0.245376	0.029852	-0.760731	-0.213478	0.041045	-0.691654	-0.188627	0.029220	-0.698486	
259	1.2950	-0.270304	1.383626	-0.514229	-0.221854	1.355117	-0.682080	-0.212497	1.346275	-0.340566	-0.160261	1.328220	-0.516681	-0.142182	0.923473	-0.430876	-0.130515	0.941204	-0.614837	-0.194303	0.983493	-0.388891	-0.176233	0.997609	-0.650739	-0.286453	0.973908	-0.465327	-0.279538	0.981164	-0.577762	-0.287339	0.985546	-0.522488	-0.252410	0.718044	-0.374190	-0.234236	0.661395	-0.365988	-0.173874	0.679005	-0.350506	-0.184119	0.739391	-0.355693	-0.287829	0.310900	-0.348850	-0.305565	0.273864	-0.352411	-0.255847	0.248940	-0.340802	-0.233091	0.285313	-0.341223	-0.379202	0.114026	-0.388955	-0.242437	0.031849	-0.324845	-0.209918	0.033983	-0.400711	-0.188612	0.028106	-0.390115	-0.213432	0.744524	-0.713985	-0.202123	0.684340	-0.720433	-0.138527	0.688628	-0.706925	-0.142467	0.747752	-0.699351	-0.300082	0.300459	-0.747142	-0.309934	0.257138	-0.745657	-0.257674	0.243563	-0.741593	-0.240869	0.280598	-0.743107	-0.380414	0.124806	-0.699167	-0.246076	0.029466	-0.761246	-0.214150	0.040699	-0.691895	-0.188996	0.029110	-0.698441	
260	1.3000	-0.269891	1.378910	-0.514249	-0.221429	1.350529	-0.682030	-0.211906	1.341470	-0.340442	-0.159653	1.323346	-0.516615	-0.142609	0.919032	-0.430951	-0.131016	0.936573	-0.615133	-0.199785	0.977277	-0.388480	-0.176780	0.992922	-0.651012	-0.287172	0.969133	-0.465517	-0.279965	0.975954	-0.578332	-0.287971	0.980787	-0.522722	-0.251998	0.712846	-0.374216	-0.233258	0.656395	-0.366186	-0.173035	0.674462	-0.350875	-0.183841	0.734763	-0.355900	-0.287391	0.307850	-0.349568	-0.305509	0.270991	-0.353057	-0.256043	0.245579	-0.341498	-0.232902	0.281687	-0.341870	-0.380914	0.111531	-0.389114	-0.242876	0.031487	-0.324652	-0.210164	0.033675	-0.401060	-0.188788	0.027992	-0.390262	-0.213343	0.739271	-0.713927	-0.201706	0.679125	-0.720250	-0.138121	0.683805	-0.706795	-0.142386	0.742927	-0.699353	-0.300060	0.296965	-0.746673	-0.310670	0.253827	-0.744920	-0.258690	0.239377	-0.740399	-0.241235	0.276113	-0.742085	-0.383278	0.121414	-0.698424	-0.246868	0.029158	-0.761585	-0.215048	0.040265	-0.691858	-0.189654	0.028947	-0.698342	
